<svg width="30" height="32" viewBox="0 0 30 32" fill="none" xmlns="http://www.w3.org/2000/svg">
<g clip-path="url(#clip0_181_2)">
<path d="M24.9999 15.5558C24.9999 14.2016 24.7366 12.9082 24.21 11.6756C23.6834 10.4429 22.9716 9.37811 22.0746 8.48112C21.1776 7.58413 20.1128 6.87232 18.8801 6.3457C17.6475 5.81908 16.3541 5.55577 14.9999 5.55577C13.6457 5.55577 12.3523 5.81908 11.1197 6.3457C9.88707 6.87232 8.82225 7.58413 7.92526 8.48112C7.02827 9.37811 6.31647 10.4429 5.78984 11.6756C5.26322 12.9082 4.99991 14.2016 4.99991 15.5558C4.99991 16.9099 5.26322 18.2033 5.78984 19.436C6.31647 20.6686 7.02827 21.7334 7.92526 22.6304C8.82225 23.5274 9.88707 24.2392 11.1197 24.7658C12.3523 25.2925 13.6457 25.5558 14.9999 25.5558C16.3541 25.5558 17.6475 25.2925 18.8801 24.7658C20.1128 24.2392 21.1776 23.5274 22.0746 22.6304C22.9716 21.7334 23.6834 20.6686 24.21 19.436C24.7366 18.2033 24.9999 16.9099 24.9999 15.5558ZM29.7916 20.3648C29.7453 20.5384 29.6295 20.6542 29.4444 20.712L24.3749 22.3787V27.6912C24.3749 27.8764 24.2997 28.0268 24.1492 28.1426C23.9756 28.2583 23.8078 28.2815 23.6457 28.212L18.5763 26.5801L15.4513 30.8856C15.3356 31.0361 15.1851 31.1113 14.9999 31.1113C14.8147 31.1113 14.6643 31.0361 14.5485 30.8856L11.4235 26.5801L6.35408 28.212C6.19204 28.2815 6.02422 28.2583 5.85061 28.1426C5.70015 28.0268 5.62491 27.8764 5.62491 27.6912V22.3787L0.55547 20.712C0.370285 20.6542 0.254544 20.5384 0.208248 20.3648C0.150378 20.168 0.173526 20.0002 0.277693 19.8613L3.40269 15.5558L0.277693 11.2502C0.173526 11.0998 0.150378 10.9319 0.208248 10.7467C0.254544 10.5731 0.370285 10.4574 0.55547 10.3995L5.62491 8.73286V3.42036C5.62491 3.23517 5.70015 3.08471 5.85061 2.96897C6.02422 2.85323 6.19204 2.83008 6.35408 2.89952L11.4235 4.53147L14.5485 0.225911C14.6527 0.0870226 14.8032 0.0175781 14.9999 0.0175781C15.1967 0.0175781 15.3471 0.0870226 15.4513 0.225911L18.5763 4.53147L23.6457 2.89952C23.8078 2.83008 23.9756 2.85323 24.1492 2.96897C24.2997 3.08471 24.3749 3.23517 24.3749 3.42036V8.73286L29.4444 10.3995C29.6295 10.4574 29.7453 10.5731 29.7916 10.7467C29.8495 10.9319 29.8263 11.0998 29.7221 11.2502L26.5971 15.5558L29.7221 19.8613C29.8263 20.0002 29.8495 20.168 29.7916 20.3648Z" fill="#F58A5B"/>
</g>
<defs>
<clipPath id="clip0_181_2">
<rect width="30" height="31.1111" fill="white"/>
</clipPath>
</defs>
</svg>
