<svg width="36" height="36" viewBox="0 0 36 36" fill="none" xmlns="http://www.w3.org/2000/svg">
<g clip-path="url(#clip0_204_2)">
<path d="M8.99995 25.8751C8.99995 25.5767 9.11847 25.2906 9.32945 25.0796C9.54043 24.8686 9.82658 24.7501 10.1249 24.7501H30.3749C30.6733 24.7501 30.9595 24.8686 31.1704 25.0796C31.3814 25.2906 31.4999 25.5767 31.4999 25.8751C31.4999 26.1734 31.3814 26.4596 31.1704 26.6706C30.9595 26.8815 30.6733 27.0001 30.3749 27.0001H10.1249C9.82658 27.0001 9.54043 26.8815 9.32945 26.6706C9.11847 26.4596 8.99995 26.1734 8.99995 25.8751ZM2.24995 30.3751C2.24995 30.0767 2.36847 29.7906 2.57945 29.5796C2.79043 29.3686 3.07658 29.2501 3.37495 29.2501H23.6249C23.9233 29.2501 24.2095 29.3686 24.4204 29.5796C24.6314 29.7906 24.7499 30.0767 24.7499 30.3751C24.7499 30.6734 24.6314 30.9596 24.4204 31.1706C24.2095 31.3815 23.9233 31.5001 23.6249 31.5001H3.37495C3.07658 31.5001 2.79043 31.3815 2.57945 31.1706C2.36847 30.9596 2.24995 30.6734 2.24995 30.3751V30.3751ZM6.74995 34.8751C6.74995 34.5767 6.86847 34.2906 7.07945 34.0796C7.29043 33.8686 7.57658 33.7501 7.87495 33.7501H28.1249C28.4233 33.7501 28.7095 33.8686 28.9204 34.0796C29.1314 34.2906 29.2499 34.5767 29.2499 34.8751C29.2499 35.1734 29.1314 35.4596 28.9204 35.6706C28.7095 35.8815 28.4233 36.0001 28.1249 36.0001H7.87495C7.57658 36.0001 7.29043 35.8815 7.07945 35.6706C6.86847 35.4596 6.74995 35.1734 6.74995 34.8751ZM30.1612 9.06082C29.694 6.70543 28.4855 4.56129 26.7124 2.9419C24.9393 1.3225 22.6947 0.312788 20.3067 0.0603897C17.9188 -0.192009 15.5127 0.326145 13.4402 1.53909C11.3678 2.75204 9.73778 4.59616 8.78845 6.80182C7.72383 6.67918 6.64539 6.77511 5.61914 7.08376C4.59289 7.39241 3.64044 7.90727 2.82009 8.59682C1.99974 9.28637 1.32877 10.1361 0.848246 11.094C0.367723 12.0519 0.0877627 13.0978 0.025507 14.1676C-0.0367486 15.2374 0.12001 16.3087 0.486185 17.3159C0.852361 18.3231 1.42025 19.2449 2.15508 20.0249C2.8899 20.805 3.77621 21.4268 4.75973 21.8524C5.74325 22.278 6.80329 22.4984 7.87495 22.5001H29.2499C30.9624 22.502 32.6117 21.853 33.8635 20.6845C35.1154 19.516 35.8763 17.9153 35.9922 16.2067C36.108 14.4981 35.5702 12.8094 34.4875 11.4826C33.4048 10.1558 31.8583 9.29005 30.1612 9.06082V9.06082Z" fill="#7DC5F9"/>
</g>
<defs>
<clipPath id="clip0_204_2">
<rect width="36" height="36" fill="white"/>
</clipPath>
</defs>
</svg>
