<svg width="36" height="36" viewBox="0 0 36 36" fill="none" xmlns="http://www.w3.org/2000/svg">
<path d="M8.05852 11.4504C8.29352 11.4139 8.51104 11.3043 8.68008 11.137C8.84912 10.9697 8.96108 10.7534 9 10.5188C9.85008 5.3557 13.6146 2.25 18 2.25C22.0732 2.25 24.7936 4.9043 25.8891 7.71609C25.9595 7.89631 26.0756 8.05509 26.226 8.17678C26.3764 8.29847 26.5559 8.37888 26.7469 8.41008C30.2625 8.98313 33.1875 11.3309 33.1875 15.4125C33.1875 19.5891 29.7703 22.5 25.5938 22.5H9.14062C5.66016 22.5 2.8125 20.7633 2.8125 16.9313C2.8125 13.5232 5.53148 11.8533 8.05852 11.4504V11.4504Z" stroke="black" stroke-width="2" stroke-linejoin="round"/>
<path d="M10.125 27L7.875 30.375M15.75 27L11.25 33.75M21.375 27L19.125 30.375M27 27L22.5 33.75" stroke="black" stroke-width="2" stroke-linecap="round" stroke-linejoin="round"/>
</svg>
