<svg width="36" height="36" viewBox="0 0 36 36" fill="none" xmlns="http://www.w3.org/2000/svg">
<path d="M32.0808 9.7995C30.9016 8.62318 29.3266 7.80193 27.4985 7.40888C27.3271 7.372 27.1667 7.29557 27.0301 7.1857C26.8935 7.07583 26.7845 6.93555 26.7117 6.77607C26.0394 5.30775 25.0216 4.02406 23.7452 3.03474C22.1119 1.78528 20.1255 1.12505 18 1.12505C15.578 1.11736 13.2378 2.00136 11.4258 3.60849C9.72422 5.12442 8.5493 7.21833 8.02055 9.64341C7.97645 9.84869 7.87597 10.0376 7.73039 10.1889C7.58481 10.3402 7.39991 10.4479 7.19648 10.4998C5.43867 10.9428 4.68562 11.3815 3.73641 12.2267C2.39062 13.4248 1.6875 15.0568 1.6875 16.9313C1.6875 19.0793 2.47711 20.8435 3.97055 22.0332C5.27906 23.0745 7.06641 23.6251 9.14062 23.6251H25.5938C27.9281 23.6251 30.1015 22.8193 31.7109 21.3554C33.3872 19.8331 34.3125 17.7223 34.3125 15.4126C34.3125 13.1984 33.5391 11.2578 32.0808 9.7995V9.7995ZM7.875 31.5001C7.6714 31.4999 7.47165 31.4446 7.29704 31.3398C7.12244 31.2351 6.97952 31.085 6.88354 30.9054C6.78755 30.7259 6.74209 30.5236 6.75201 30.3203C6.76193 30.1169 6.82684 29.92 6.93984 29.7507L9.18984 26.3757C9.27184 26.2528 9.37724 26.1472 9.50002 26.0651C9.6228 25.9829 9.76057 25.9257 9.90545 25.8968C10.0503 25.8679 10.1995 25.8678 10.3444 25.8965C10.4893 25.9252 10.6272 25.9822 10.7501 26.0642C10.873 26.1462 10.9785 26.2516 11.0607 26.3744C11.1429 26.4972 11.2 26.6349 11.229 26.7798C11.2579 26.9247 11.258 27.0738 11.2293 27.2188C11.2005 27.3637 11.1436 27.5015 11.0616 27.6244L8.81156 30.9994C8.70874 31.1535 8.56945 31.2799 8.40607 31.3672C8.24269 31.4545 8.06026 31.5002 7.875 31.5001V31.5001ZM11.25 34.8751C11.0465 34.8748 10.8468 34.8193 10.6723 34.7146C10.4978 34.6098 10.355 34.4596 10.2591 34.2801C10.1632 34.1006 10.1178 33.8984 10.1277 33.6951C10.1377 33.4918 10.2026 33.295 10.3155 33.1257L14.8155 26.3757C14.8975 26.2528 15.0029 26.1472 15.1257 26.0651C15.2485 25.9829 15.3863 25.9257 15.5312 25.8968C15.676 25.8679 15.8252 25.8678 15.9701 25.8965C16.115 25.9252 16.2529 25.9822 16.3758 26.0642C16.4987 26.1462 16.6042 26.2516 16.6864 26.3744C16.7686 26.4972 16.8257 26.6349 16.8547 26.7798C16.8836 26.9247 16.8837 27.0738 16.855 27.2188C16.8262 27.3637 16.7693 27.5015 16.6873 27.6244L12.1873 34.3744C12.0844 34.5286 11.945 34.655 11.7815 34.7424C11.6179 34.8297 11.4354 34.8753 11.25 34.8751V34.8751ZM19.125 31.5001C18.9214 31.4999 18.7216 31.4446 18.547 31.3398C18.3724 31.2351 18.2295 31.085 18.1335 30.9054C18.0376 30.7259 17.9921 30.5236 18.002 30.3203C18.0119 30.1169 18.0768 29.92 18.1898 29.7507L20.4398 26.3757C20.6054 26.1275 20.8628 25.9552 21.1554 25.8968C21.4481 25.8384 21.7519 25.8986 22.0001 26.0642C22.2483 26.2298 22.4205 26.4872 22.479 26.7798C22.5374 27.0724 22.4772 27.3762 22.3116 27.6244L20.0616 30.9994C19.9587 31.1535 19.8195 31.2799 19.6561 31.3672C19.4927 31.4545 19.3103 31.5002 19.125 31.5001V31.5001ZM22.5 34.8751C22.2964 34.8749 22.0966 34.8196 21.922 34.7148C21.7474 34.6101 21.6045 34.46 21.5085 34.2804C21.4126 34.1009 21.3671 33.8986 21.377 33.6953C21.3869 33.4919 21.4518 33.295 21.5648 33.1257L26.0648 26.3757C26.2304 26.1275 26.4878 25.9552 26.7804 25.8968C27.0731 25.8384 27.3769 25.8986 27.6251 26.0642C27.8733 26.2298 28.0455 26.4872 28.104 26.7798C28.1624 27.0724 28.1022 27.3762 27.9366 27.6244L23.4366 34.3744C23.3337 34.5285 23.1945 34.6549 23.0311 34.7422C22.8677 34.8295 22.6853 34.8752 22.5 34.8751V34.8751Z" fill="#6C90C6"/>
</svg>
